<mxfile host="app.diagrams.net" modified="2023-10-16T03:28:00.874Z" agent="Mozilla/5.0 (Windows NT 10.0; Win64; x64) AppleWebKit/537.36 (KHTML, like Gecko) Chrome/118.0.0.0 Safari/537.36" etag="Gy7XyjngQJxFK6RqxVfD" version="22.0.4" type="github">
  <diagram id="C5RBs43oDa-KdzZeNtuy" name="Page-1">
    <mxGraphModel dx="3150" dy="1643" grid="1" gridSize="10" guides="1" tooltips="1" connect="1" arrows="1" fold="1" page="1" pageScale="1" pageWidth="827" pageHeight="1169" math="0" shadow="0">
      <root>
        <mxCell id="WIyWlLk6GJQsqaUBKTNV-0" />
        <mxCell id="WIyWlLk6GJQsqaUBKTNV-1" parent="WIyWlLk6GJQsqaUBKTNV-0" />
        <mxCell id="WIyWlLk6GJQsqaUBKTNV-2" value="" style="rounded=0;html=1;jettySize=auto;orthogonalLoop=1;fontSize=11;endArrow=block;endFill=0;endSize=8;strokeWidth=1;shadow=0;labelBackgroundColor=none;edgeStyle=orthogonalEdgeStyle;exitX=0.5;exitY=1;exitDx=0;exitDy=0;exitPerimeter=0;" parent="WIyWlLk6GJQsqaUBKTNV-1" source="QnkBfAuby-8ETpN3tcD6-1" target="WIyWlLk6GJQsqaUBKTNV-6" edge="1">
          <mxGeometry relative="1" as="geometry">
            <mxPoint x="300" y="120" as="sourcePoint" />
          </mxGeometry>
        </mxCell>
        <mxCell id="WIyWlLk6GJQsqaUBKTNV-4" value="Yes" style="rounded=0;html=1;jettySize=auto;orthogonalLoop=1;fontSize=11;endArrow=block;endFill=0;endSize=8;strokeWidth=1;shadow=0;labelBackgroundColor=none;edgeStyle=orthogonalEdgeStyle;" parent="WIyWlLk6GJQsqaUBKTNV-1" source="WIyWlLk6GJQsqaUBKTNV-6" target="WIyWlLk6GJQsqaUBKTNV-10" edge="1">
          <mxGeometry y="20" relative="1" as="geometry">
            <mxPoint as="offset" />
          </mxGeometry>
        </mxCell>
        <mxCell id="WIyWlLk6GJQsqaUBKTNV-5" value="No" style="edgeStyle=orthogonalEdgeStyle;rounded=0;html=1;jettySize=auto;orthogonalLoop=1;fontSize=11;endArrow=block;endFill=0;endSize=8;strokeWidth=1;shadow=0;labelBackgroundColor=none;" parent="WIyWlLk6GJQsqaUBKTNV-1" source="WIyWlLk6GJQsqaUBKTNV-6" target="WIyWlLk6GJQsqaUBKTNV-7" edge="1">
          <mxGeometry y="10" relative="1" as="geometry">
            <mxPoint as="offset" />
          </mxGeometry>
        </mxCell>
        <mxCell id="WIyWlLk6GJQsqaUBKTNV-6" value="Has an account?" style="rhombus;whiteSpace=wrap;html=1;shadow=0;fontFamily=Helvetica;fontSize=12;align=center;strokeWidth=1;spacing=6;spacingTop=-4;" parent="WIyWlLk6GJQsqaUBKTNV-1" vertex="1">
          <mxGeometry x="250" y="170" width="100" height="80" as="geometry" />
        </mxCell>
        <mxCell id="WIyWlLk6GJQsqaUBKTNV-7" value="Register account" style="rounded=1;whiteSpace=wrap;html=1;fontSize=12;glass=0;strokeWidth=1;shadow=0;" parent="WIyWlLk6GJQsqaUBKTNV-1" vertex="1">
          <mxGeometry x="90" y="190" width="120" height="40" as="geometry" />
        </mxCell>
        <mxCell id="WIyWlLk6GJQsqaUBKTNV-8" value="Yes" style="rounded=0;html=1;jettySize=auto;orthogonalLoop=1;fontSize=11;endArrow=block;endFill=0;endSize=8;strokeWidth=1;shadow=0;labelBackgroundColor=none;edgeStyle=orthogonalEdgeStyle;exitX=0.5;exitY=1;exitDx=0;exitDy=0;" parent="WIyWlLk6GJQsqaUBKTNV-1" source="QnkBfAuby-8ETpN3tcD6-7" target="WIyWlLk6GJQsqaUBKTNV-11" edge="1">
          <mxGeometry x="-1" y="92" relative="1" as="geometry">
            <mxPoint x="-72" y="-90" as="offset" />
            <mxPoint x="300" y="490" as="sourcePoint" />
          </mxGeometry>
        </mxCell>
        <mxCell id="WIyWlLk6GJQsqaUBKTNV-9" value="No" style="edgeStyle=orthogonalEdgeStyle;rounded=0;html=1;jettySize=auto;orthogonalLoop=1;fontSize=11;endArrow=block;endFill=0;endSize=8;strokeWidth=1;shadow=0;labelBackgroundColor=none;entryX=0;entryY=0.5;entryDx=0;entryDy=0;" parent="WIyWlLk6GJQsqaUBKTNV-1" source="WIyWlLk6GJQsqaUBKTNV-10" target="WIyWlLk6GJQsqaUBKTNV-12" edge="1">
          <mxGeometry y="10" relative="1" as="geometry">
            <mxPoint as="offset" />
            <Array as="points">
              <mxPoint x="400" y="330" />
              <mxPoint x="400" y="210" />
            </Array>
          </mxGeometry>
        </mxCell>
        <mxCell id="WIyWlLk6GJQsqaUBKTNV-10" value="Remember the password?" style="rhombus;whiteSpace=wrap;html=1;shadow=0;fontFamily=Helvetica;fontSize=12;align=center;strokeWidth=1;spacing=6;spacingTop=-4;" parent="WIyWlLk6GJQsqaUBKTNV-1" vertex="1">
          <mxGeometry x="230" y="290" width="140" height="80" as="geometry" />
        </mxCell>
        <mxCell id="QnkBfAuby-8ETpN3tcD6-15" style="edgeStyle=orthogonalEdgeStyle;shape=connector;rounded=0;orthogonalLoop=1;jettySize=auto;html=1;shadow=0;labelBackgroundColor=none;strokeColor=default;strokeWidth=1;align=center;verticalAlign=middle;fontFamily=Helvetica;fontSize=11;fontColor=default;endArrow=block;endFill=0;endSize=8;" parent="WIyWlLk6GJQsqaUBKTNV-1" source="WIyWlLk6GJQsqaUBKTNV-11" target="QnkBfAuby-8ETpN3tcD6-14" edge="1">
          <mxGeometry relative="1" as="geometry">
            <Array as="points">
              <mxPoint x="300" y="590" />
              <mxPoint x="800" y="590" />
            </Array>
          </mxGeometry>
        </mxCell>
        <mxCell id="WIyWlLk6GJQsqaUBKTNV-11" value="Login" style="rounded=1;whiteSpace=wrap;html=1;fontSize=12;glass=0;strokeWidth=1;shadow=0;" parent="WIyWlLk6GJQsqaUBKTNV-1" vertex="1">
          <mxGeometry x="240" y="520" width="120" height="40" as="geometry" />
        </mxCell>
        <mxCell id="QnkBfAuby-8ETpN3tcD6-28" style="edgeStyle=orthogonalEdgeStyle;shape=connector;rounded=0;orthogonalLoop=1;jettySize=auto;html=1;exitX=0.5;exitY=1;exitDx=0;exitDy=0;shadow=0;labelBackgroundColor=none;strokeColor=default;strokeWidth=1;align=center;verticalAlign=middle;fontFamily=Helvetica;fontSize=11;fontColor=default;endArrow=block;endFill=0;endSize=8;" parent="WIyWlLk6GJQsqaUBKTNV-1" source="WIyWlLk6GJQsqaUBKTNV-12" target="QnkBfAuby-8ETpN3tcD6-26" edge="1">
          <mxGeometry relative="1" as="geometry" />
        </mxCell>
        <mxCell id="WIyWlLk6GJQsqaUBKTNV-12" value="Reset password" style="rounded=1;whiteSpace=wrap;html=1;fontSize=12;glass=0;strokeWidth=1;shadow=0;" parent="WIyWlLk6GJQsqaUBKTNV-1" vertex="1">
          <mxGeometry x="470" y="190" width="120" height="40" as="geometry" />
        </mxCell>
        <mxCell id="QnkBfAuby-8ETpN3tcD6-1" value="Start" style="strokeWidth=2;html=1;shape=mxgraph.flowchart.start_1;whiteSpace=wrap;" parent="WIyWlLk6GJQsqaUBKTNV-1" vertex="1">
          <mxGeometry x="250" y="60" width="100" height="60" as="geometry" />
        </mxCell>
        <mxCell id="QnkBfAuby-8ETpN3tcD6-4" value="" style="rounded=0;html=1;jettySize=auto;orthogonalLoop=1;fontSize=11;endArrow=block;endFill=0;endSize=8;strokeWidth=1;shadow=0;labelBackgroundColor=none;edgeStyle=orthogonalEdgeStyle;entryX=0.5;entryY=0;entryDx=0;entryDy=0;" parent="WIyWlLk6GJQsqaUBKTNV-1" source="WIyWlLk6GJQsqaUBKTNV-10" target="QnkBfAuby-8ETpN3tcD6-7" edge="1">
          <mxGeometry x="0.3333" y="20" relative="1" as="geometry">
            <mxPoint as="offset" />
            <mxPoint x="300" y="370" as="sourcePoint" />
            <mxPoint x="300" y="430" as="targetPoint" />
          </mxGeometry>
        </mxCell>
        <mxCell id="QnkBfAuby-8ETpN3tcD6-5" value="FIll out the information" style="rounded=1;whiteSpace=wrap;html=1;fontSize=12;glass=0;strokeWidth=1;shadow=0;" parent="WIyWlLk6GJQsqaUBKTNV-1" vertex="1">
          <mxGeometry x="90" y="265" width="120" height="40" as="geometry" />
        </mxCell>
        <mxCell id="QnkBfAuby-8ETpN3tcD6-7" value="Input email &amp;amp; password" style="rounded=1;whiteSpace=wrap;html=1;fontSize=12;glass=0;strokeWidth=1;shadow=0;" parent="WIyWlLk6GJQsqaUBKTNV-1" vertex="1">
          <mxGeometry x="240" y="430" width="120" height="40" as="geometry" />
        </mxCell>
        <mxCell id="QnkBfAuby-8ETpN3tcD6-9" value="" style="edgeStyle=orthogonalEdgeStyle;rounded=0;html=1;jettySize=auto;orthogonalLoop=1;fontSize=11;endArrow=block;endFill=0;endSize=8;strokeWidth=1;shadow=0;labelBackgroundColor=none;" parent="WIyWlLk6GJQsqaUBKTNV-1" source="WIyWlLk6GJQsqaUBKTNV-7" target="QnkBfAuby-8ETpN3tcD6-5" edge="1">
          <mxGeometry y="10" relative="1" as="geometry">
            <mxPoint as="offset" />
            <mxPoint x="490" y="220" as="sourcePoint" />
            <mxPoint x="550" y="220" as="targetPoint" />
          </mxGeometry>
        </mxCell>
        <mxCell id="QnkBfAuby-8ETpN3tcD6-10" value="" style="edgeStyle=orthogonalEdgeStyle;rounded=0;html=1;jettySize=auto;orthogonalLoop=1;fontSize=11;endArrow=block;endFill=0;endSize=8;strokeWidth=1;shadow=0;labelBackgroundColor=none;" parent="WIyWlLk6GJQsqaUBKTNV-1" source="QnkBfAuby-8ETpN3tcD6-16" target="QnkBfAuby-8ETpN3tcD6-5" edge="1">
          <mxGeometry y="10" relative="1" as="geometry">
            <mxPoint as="offset" />
            <mxPoint x="-140" y="450" as="sourcePoint" />
            <mxPoint x="-60" y="390" as="targetPoint" />
            <Array as="points">
              <mxPoint x="50" y="540" />
              <mxPoint x="50" y="285" />
            </Array>
          </mxGeometry>
        </mxCell>
        <mxCell id="QnkBfAuby-8ETpN3tcD6-13" style="edgeStyle=orthogonalEdgeStyle;shape=connector;rounded=0;orthogonalLoop=1;jettySize=auto;html=1;exitX=1;exitY=0.5;exitDx=0;exitDy=0;shadow=0;labelBackgroundColor=none;strokeColor=default;strokeWidth=1;align=center;verticalAlign=middle;fontFamily=Helvetica;fontSize=11;fontColor=default;endArrow=block;endFill=0;endSize=8;entryX=0;entryY=0.5;entryDx=0;entryDy=0;exitPerimeter=0;" parent="WIyWlLk6GJQsqaUBKTNV-1" source="QnkBfAuby-8ETpN3tcD6-16" target="WIyWlLk6GJQsqaUBKTNV-11" edge="1">
          <mxGeometry relative="1" as="geometry">
            <mxPoint x="360" y="540" as="targetPoint" />
          </mxGeometry>
        </mxCell>
        <mxCell id="IYtLKer7iQLUhPNdhKc--1" style="edgeStyle=orthogonalEdgeStyle;shape=connector;rounded=0;orthogonalLoop=1;jettySize=auto;html=1;exitX=1;exitY=0.5;exitDx=0;exitDy=0;shadow=0;labelBackgroundColor=none;strokeColor=default;strokeWidth=1;align=center;verticalAlign=middle;fontFamily=Helvetica;fontSize=11;fontColor=default;endArrow=block;endFill=0;endSize=8;" edge="1" parent="WIyWlLk6GJQsqaUBKTNV-1" source="QnkBfAuby-8ETpN3tcD6-14" target="QnkBfAuby-8ETpN3tcD6-46">
          <mxGeometry relative="1" as="geometry" />
        </mxCell>
        <mxCell id="QnkBfAuby-8ETpN3tcD6-14" value="Homepage" style="rounded=1;whiteSpace=wrap;html=1;fontSize=12;glass=0;strokeWidth=1;shadow=0;" parent="WIyWlLk6GJQsqaUBKTNV-1" vertex="1">
          <mxGeometry x="740" y="190" width="120" height="40" as="geometry" />
        </mxCell>
        <mxCell id="QnkBfAuby-8ETpN3tcD6-16" value="Email used?" style="strokeWidth=2;html=1;shape=mxgraph.flowchart.decision;whiteSpace=wrap;fontFamily=Helvetica;fontSize=11;fontColor=default;" parent="WIyWlLk6GJQsqaUBKTNV-1" vertex="1">
          <mxGeometry x="100" y="500" width="100" height="80" as="geometry" />
        </mxCell>
        <mxCell id="QnkBfAuby-8ETpN3tcD6-17" value="" style="edgeStyle=orthogonalEdgeStyle;rounded=0;html=1;jettySize=auto;orthogonalLoop=1;fontSize=11;endArrow=block;endFill=0;endSize=8;strokeWidth=1;shadow=0;labelBackgroundColor=none;exitX=0.5;exitY=1;exitDx=0;exitDy=0;entryX=0.5;entryY=0;entryDx=0;entryDy=0;entryPerimeter=0;" parent="WIyWlLk6GJQsqaUBKTNV-1" source="QnkBfAuby-8ETpN3tcD6-11" target="QnkBfAuby-8ETpN3tcD6-16" edge="1">
          <mxGeometry y="10" relative="1" as="geometry">
            <mxPoint as="offset" />
            <mxPoint x="-20" y="370" as="sourcePoint" />
            <mxPoint x="-20" y="530" as="targetPoint" />
          </mxGeometry>
        </mxCell>
        <mxCell id="QnkBfAuby-8ETpN3tcD6-22" value="" style="edgeStyle=orthogonalEdgeStyle;rounded=0;html=1;jettySize=auto;orthogonalLoop=1;fontSize=11;endArrow=block;endFill=0;endSize=8;strokeWidth=1;shadow=0;labelBackgroundColor=none;exitX=0.5;exitY=1;exitDx=0;exitDy=0;entryX=0.5;entryY=0;entryDx=0;entryDy=0;entryPerimeter=0;" parent="WIyWlLk6GJQsqaUBKTNV-1" source="QnkBfAuby-8ETpN3tcD6-5" target="QnkBfAuby-8ETpN3tcD6-11" edge="1">
          <mxGeometry y="10" relative="1" as="geometry">
            <mxPoint as="offset" />
            <mxPoint x="150" y="305" as="sourcePoint" />
            <mxPoint x="-23" y="620" as="targetPoint" />
          </mxGeometry>
        </mxCell>
        <mxCell id="QnkBfAuby-8ETpN3tcD6-11" value="Submit" style="rounded=1;whiteSpace=wrap;html=1;fontSize=12;glass=0;strokeWidth=1;shadow=0;" parent="WIyWlLk6GJQsqaUBKTNV-1" vertex="1">
          <mxGeometry x="90" y="395" width="120" height="40" as="geometry" />
        </mxCell>
        <mxCell id="QnkBfAuby-8ETpN3tcD6-23" value="No" style="text;html=1;align=center;verticalAlign=middle;resizable=0;points=[];autosize=1;strokeColor=none;fillColor=none;fontSize=11;fontFamily=Helvetica;fontColor=default;" parent="WIyWlLk6GJQsqaUBKTNV-1" vertex="1">
          <mxGeometry x="190" y="510" width="40" height="30" as="geometry" />
        </mxCell>
        <mxCell id="QnkBfAuby-8ETpN3tcD6-24" value="Yes" style="text;html=1;align=center;verticalAlign=middle;resizable=0;points=[];autosize=1;strokeColor=none;fillColor=none;fontSize=11;fontFamily=Helvetica;fontColor=default;" parent="WIyWlLk6GJQsqaUBKTNV-1" vertex="1">
          <mxGeometry x="60" y="510" width="40" height="30" as="geometry" />
        </mxCell>
        <mxCell id="QnkBfAuby-8ETpN3tcD6-29" style="edgeStyle=orthogonalEdgeStyle;shape=connector;rounded=0;orthogonalLoop=1;jettySize=auto;html=1;exitX=0.5;exitY=1;exitDx=0;exitDy=0;entryX=0.5;entryY=0;entryDx=0;entryDy=0;shadow=0;labelBackgroundColor=none;strokeColor=default;strokeWidth=1;align=center;verticalAlign=middle;fontFamily=Helvetica;fontSize=11;fontColor=default;endArrow=block;endFill=0;endSize=8;entryPerimeter=0;" parent="WIyWlLk6GJQsqaUBKTNV-1" source="QnkBfAuby-8ETpN3tcD6-35" target="QnkBfAuby-8ETpN3tcD6-30" edge="1">
          <mxGeometry relative="1" as="geometry">
            <mxPoint x="530" y="340" as="targetPoint" />
          </mxGeometry>
        </mxCell>
        <mxCell id="QnkBfAuby-8ETpN3tcD6-36" style="edgeStyle=orthogonalEdgeStyle;shape=connector;rounded=0;orthogonalLoop=1;jettySize=auto;html=1;exitX=0.5;exitY=1;exitDx=0;exitDy=0;entryX=0.5;entryY=0;entryDx=0;entryDy=0;shadow=0;labelBackgroundColor=none;strokeColor=default;strokeWidth=1;align=center;verticalAlign=middle;fontFamily=Helvetica;fontSize=11;fontColor=default;endArrow=block;endFill=0;endSize=8;" parent="WIyWlLk6GJQsqaUBKTNV-1" source="QnkBfAuby-8ETpN3tcD6-26" target="QnkBfAuby-8ETpN3tcD6-35" edge="1">
          <mxGeometry relative="1" as="geometry" />
        </mxCell>
        <mxCell id="QnkBfAuby-8ETpN3tcD6-26" value="Input account&#39;s email" style="rounded=1;whiteSpace=wrap;html=1;fontSize=12;glass=0;strokeWidth=1;shadow=0;" parent="WIyWlLk6GJQsqaUBKTNV-1" vertex="1">
          <mxGeometry x="470" y="260" width="120" height="40" as="geometry" />
        </mxCell>
        <mxCell id="QnkBfAuby-8ETpN3tcD6-31" style="edgeStyle=orthogonalEdgeStyle;shape=connector;rounded=0;orthogonalLoop=1;jettySize=auto;html=1;exitX=0;exitY=0.5;exitDx=0;exitDy=0;exitPerimeter=0;entryX=0;entryY=0.5;entryDx=0;entryDy=0;shadow=0;labelBackgroundColor=none;strokeColor=default;strokeWidth=1;align=center;verticalAlign=middle;fontFamily=Helvetica;fontSize=11;fontColor=default;endArrow=block;endFill=0;endSize=8;" parent="WIyWlLk6GJQsqaUBKTNV-1" source="QnkBfAuby-8ETpN3tcD6-30" target="QnkBfAuby-8ETpN3tcD6-26" edge="1">
          <mxGeometry relative="1" as="geometry">
            <Array as="points">
              <mxPoint x="440" y="450" />
              <mxPoint x="440" y="280" />
            </Array>
          </mxGeometry>
        </mxCell>
        <mxCell id="QnkBfAuby-8ETpN3tcD6-40" style="edgeStyle=orthogonalEdgeStyle;shape=connector;rounded=0;orthogonalLoop=1;jettySize=auto;html=1;shadow=0;labelBackgroundColor=none;strokeColor=default;strokeWidth=1;align=center;verticalAlign=middle;fontFamily=Helvetica;fontSize=11;fontColor=default;endArrow=block;endFill=0;endSize=8;" parent="WIyWlLk6GJQsqaUBKTNV-1" source="QnkBfAuby-8ETpN3tcD6-30" target="QnkBfAuby-8ETpN3tcD6-37" edge="1">
          <mxGeometry relative="1" as="geometry" />
        </mxCell>
        <mxCell id="QnkBfAuby-8ETpN3tcD6-30" value="Email correct?" style="strokeWidth=2;html=1;shape=mxgraph.flowchart.decision;whiteSpace=wrap;fontFamily=Helvetica;fontSize=11;fontColor=default;" parent="WIyWlLk6GJQsqaUBKTNV-1" vertex="1">
          <mxGeometry x="480" y="410" width="100" height="80" as="geometry" />
        </mxCell>
        <mxCell id="QnkBfAuby-8ETpN3tcD6-33" value="No" style="text;html=1;align=center;verticalAlign=middle;resizable=0;points=[];autosize=1;strokeColor=none;fillColor=none;fontSize=11;fontFamily=Helvetica;fontColor=default;" parent="WIyWlLk6GJQsqaUBKTNV-1" vertex="1">
          <mxGeometry x="440" y="420" width="40" height="30" as="geometry" />
        </mxCell>
        <mxCell id="QnkBfAuby-8ETpN3tcD6-34" value="Yes" style="text;html=1;align=center;verticalAlign=middle;resizable=0;points=[];autosize=1;strokeColor=none;fillColor=none;fontSize=11;fontFamily=Helvetica;fontColor=default;" parent="WIyWlLk6GJQsqaUBKTNV-1" vertex="1">
          <mxGeometry x="570" y="420" width="40" height="30" as="geometry" />
        </mxCell>
        <mxCell id="QnkBfAuby-8ETpN3tcD6-35" value="Submit email" style="rounded=1;whiteSpace=wrap;html=1;fontSize=12;glass=0;strokeWidth=1;shadow=0;" parent="WIyWlLk6GJQsqaUBKTNV-1" vertex="1">
          <mxGeometry x="470" y="330" width="120" height="40" as="geometry" />
        </mxCell>
        <mxCell id="QnkBfAuby-8ETpN3tcD6-41" style="edgeStyle=orthogonalEdgeStyle;shape=connector;rounded=0;orthogonalLoop=1;jettySize=auto;html=1;shadow=0;labelBackgroundColor=none;strokeColor=default;strokeWidth=1;align=center;verticalAlign=middle;fontFamily=Helvetica;fontSize=11;fontColor=default;endArrow=block;endFill=0;endSize=8;" parent="WIyWlLk6GJQsqaUBKTNV-1" source="QnkBfAuby-8ETpN3tcD6-37" target="QnkBfAuby-8ETpN3tcD6-38" edge="1">
          <mxGeometry relative="1" as="geometry" />
        </mxCell>
        <mxCell id="QnkBfAuby-8ETpN3tcD6-37" value="Check email" style="rounded=1;whiteSpace=wrap;html=1;fontSize=12;glass=0;strokeWidth=1;shadow=0;" parent="WIyWlLk6GJQsqaUBKTNV-1" vertex="1">
          <mxGeometry x="630" y="430" width="120" height="40" as="geometry" />
        </mxCell>
        <mxCell id="QnkBfAuby-8ETpN3tcD6-42" style="edgeStyle=orthogonalEdgeStyle;shape=connector;rounded=0;orthogonalLoop=1;jettySize=auto;html=1;shadow=0;labelBackgroundColor=none;strokeColor=default;strokeWidth=1;align=center;verticalAlign=middle;fontFamily=Helvetica;fontSize=11;fontColor=default;endArrow=block;endFill=0;endSize=8;" parent="WIyWlLk6GJQsqaUBKTNV-1" source="QnkBfAuby-8ETpN3tcD6-38" target="QnkBfAuby-8ETpN3tcD6-39" edge="1">
          <mxGeometry relative="1" as="geometry" />
        </mxCell>
        <mxCell id="QnkBfAuby-8ETpN3tcD6-38" value="Input code" style="rounded=1;whiteSpace=wrap;html=1;fontSize=12;glass=0;strokeWidth=1;shadow=0;" parent="WIyWlLk6GJQsqaUBKTNV-1" vertex="1">
          <mxGeometry x="630" y="520" width="120" height="40" as="geometry" />
        </mxCell>
        <mxCell id="QnkBfAuby-8ETpN3tcD6-43" style="edgeStyle=orthogonalEdgeStyle;shape=connector;rounded=0;orthogonalLoop=1;jettySize=auto;html=1;shadow=0;labelBackgroundColor=none;strokeColor=default;strokeWidth=1;align=center;verticalAlign=middle;fontFamily=Helvetica;fontSize=11;fontColor=default;endArrow=block;endFill=0;endSize=8;" parent="WIyWlLk6GJQsqaUBKTNV-1" source="QnkBfAuby-8ETpN3tcD6-39" target="WIyWlLk6GJQsqaUBKTNV-11" edge="1">
          <mxGeometry relative="1" as="geometry" />
        </mxCell>
        <mxCell id="QnkBfAuby-8ETpN3tcD6-39" value="Submit" style="rounded=1;whiteSpace=wrap;html=1;fontSize=12;glass=0;strokeWidth=1;shadow=0;" parent="WIyWlLk6GJQsqaUBKTNV-1" vertex="1">
          <mxGeometry x="470" y="520" width="120" height="40" as="geometry" />
        </mxCell>
        <mxCell id="QnkBfAuby-8ETpN3tcD6-45" value="No" style="rounded=0;html=1;jettySize=auto;orthogonalLoop=1;fontSize=11;endArrow=block;endFill=0;endSize=8;strokeWidth=1;shadow=0;labelBackgroundColor=none;edgeStyle=orthogonalEdgeStyle;" parent="WIyWlLk6GJQsqaUBKTNV-1" source="QnkBfAuby-8ETpN3tcD6-46" target="IYtLKer7iQLUhPNdhKc--2" edge="1">
          <mxGeometry y="10" relative="1" as="geometry">
            <mxPoint as="offset" />
            <mxPoint x="1070" y="210" as="targetPoint" />
          </mxGeometry>
        </mxCell>
        <mxCell id="QnkBfAuby-8ETpN3tcD6-46" value="Search Food Recipe?" style="rhombus;whiteSpace=wrap;html=1;shadow=0;fontFamily=Helvetica;fontSize=12;align=center;strokeWidth=1;spacing=6;spacingTop=-4;" parent="WIyWlLk6GJQsqaUBKTNV-1" vertex="1">
          <mxGeometry x="930" y="170" width="100" height="80" as="geometry" />
        </mxCell>
        <mxCell id="IYtLKer7iQLUhPNdhKc--2" value="View popular food recipes" style="rhombus;whiteSpace=wrap;html=1;shadow=0;fontFamily=Helvetica;fontSize=12;align=center;strokeWidth=1;spacing=6;spacingTop=-4;" vertex="1" parent="WIyWlLk6GJQsqaUBKTNV-1">
          <mxGeometry x="1070" y="170" width="100" height="80" as="geometry" />
        </mxCell>
        <mxCell id="IYtLKer7iQLUhPNdhKc--8" style="shape=connector;rounded=0;orthogonalLoop=1;jettySize=auto;html=1;exitX=0.5;exitY=1;exitDx=0;exitDy=0;shadow=0;labelBackgroundColor=none;strokeColor=default;strokeWidth=1;align=center;verticalAlign=middle;fontFamily=Helvetica;fontSize=11;fontColor=default;endArrow=block;endFill=0;endSize=8;" edge="1" parent="WIyWlLk6GJQsqaUBKTNV-1" source="IYtLKer7iQLUhPNdhKc--18" target="IYtLKer7iQLUhPNdhKc--7">
          <mxGeometry relative="1" as="geometry" />
        </mxCell>
        <mxCell id="IYtLKer7iQLUhPNdhKc--5" value="Search the food that you want" style="rounded=1;whiteSpace=wrap;html=1;fontSize=12;glass=0;strokeWidth=1;shadow=0;" vertex="1" parent="WIyWlLk6GJQsqaUBKTNV-1">
          <mxGeometry x="920" y="280" width="120" height="40" as="geometry" />
        </mxCell>
        <mxCell id="IYtLKer7iQLUhPNdhKc--13" style="edgeStyle=orthogonalEdgeStyle;shape=connector;rounded=0;orthogonalLoop=1;jettySize=auto;html=1;exitX=0.5;exitY=1;exitDx=0;exitDy=0;shadow=0;labelBackgroundColor=none;strokeColor=default;strokeWidth=1;align=center;verticalAlign=middle;fontFamily=Helvetica;fontSize=11;fontColor=default;endArrow=block;endFill=0;endSize=8;" edge="1" parent="WIyWlLk6GJQsqaUBKTNV-1" source="IYtLKer7iQLUhPNdhKc--7" target="IYtLKer7iQLUhPNdhKc--27">
          <mxGeometry relative="1" as="geometry" />
        </mxCell>
        <mxCell id="IYtLKer7iQLUhPNdhKc--7" value="Display recipe details" style="rounded=1;whiteSpace=wrap;html=1;fontSize=12;glass=0;strokeWidth=1;shadow=0;" vertex="1" parent="WIyWlLk6GJQsqaUBKTNV-1">
          <mxGeometry x="980" y="470" width="120" height="40" as="geometry" />
        </mxCell>
        <mxCell id="IYtLKer7iQLUhPNdhKc--11" style="shape=connector;rounded=0;orthogonalLoop=1;jettySize=auto;html=1;exitX=0.5;exitY=1;exitDx=0;exitDy=0;shadow=0;labelBackgroundColor=none;strokeColor=default;strokeWidth=1;align=center;verticalAlign=middle;fontFamily=Helvetica;fontSize=11;fontColor=default;endArrow=block;endFill=0;endSize=8;" edge="1" parent="WIyWlLk6GJQsqaUBKTNV-1" source="IYtLKer7iQLUhPNdhKc--9" target="IYtLKer7iQLUhPNdhKc--7">
          <mxGeometry relative="1" as="geometry" />
        </mxCell>
        <mxCell id="IYtLKer7iQLUhPNdhKc--9" value="Select the recipe that you want" style="rounded=1;whiteSpace=wrap;html=1;fontSize=12;glass=0;strokeWidth=1;shadow=0;" vertex="1" parent="WIyWlLk6GJQsqaUBKTNV-1">
          <mxGeometry x="1060" y="280" width="120" height="40" as="geometry" />
        </mxCell>
        <mxCell id="IYtLKer7iQLUhPNdhKc--12" value="Play the steps video" style="rounded=1;whiteSpace=wrap;html=1;fontSize=12;glass=0;strokeWidth=1;shadow=0;" vertex="1" parent="WIyWlLk6GJQsqaUBKTNV-1">
          <mxGeometry x="840" y="560" width="120" height="40" as="geometry" />
        </mxCell>
        <mxCell id="IYtLKer7iQLUhPNdhKc--14" value="No" style="rounded=0;html=1;jettySize=auto;orthogonalLoop=1;fontSize=11;endArrow=block;endFill=0;endSize=8;strokeWidth=1;shadow=0;labelBackgroundColor=none;edgeStyle=orthogonalEdgeStyle;" edge="1" source="IYtLKer7iQLUhPNdhKc--15" target="IYtLKer7iQLUhPNdhKc--16" parent="WIyWlLk6GJQsqaUBKTNV-1">
          <mxGeometry y="10" relative="1" as="geometry">
            <mxPoint as="offset" />
            <mxPoint x="1350" y="210" as="targetPoint" />
          </mxGeometry>
        </mxCell>
        <mxCell id="IYtLKer7iQLUhPNdhKc--15" value="Add recipe?" style="rhombus;whiteSpace=wrap;html=1;shadow=0;fontFamily=Helvetica;fontSize=12;align=center;strokeWidth=1;spacing=6;spacingTop=-4;" vertex="1" parent="WIyWlLk6GJQsqaUBKTNV-1">
          <mxGeometry x="1210" y="170" width="100" height="80" as="geometry" />
        </mxCell>
        <mxCell id="IYtLKer7iQLUhPNdhKc--16" value="View Profile?" style="rhombus;whiteSpace=wrap;html=1;shadow=0;fontFamily=Helvetica;fontSize=12;align=center;strokeWidth=1;spacing=6;spacingTop=-4;" vertex="1" parent="WIyWlLk6GJQsqaUBKTNV-1">
          <mxGeometry x="1350" y="170" width="100" height="80" as="geometry" />
        </mxCell>
        <mxCell id="IYtLKer7iQLUhPNdhKc--17" value="No" style="rounded=0;html=1;jettySize=auto;orthogonalLoop=1;fontSize=11;endArrow=block;endFill=0;endSize=8;strokeWidth=1;shadow=0;labelBackgroundColor=none;edgeStyle=orthogonalEdgeStyle;" edge="1" parent="WIyWlLk6GJQsqaUBKTNV-1" source="IYtLKer7iQLUhPNdhKc--2" target="IYtLKer7iQLUhPNdhKc--15">
          <mxGeometry y="10" relative="1" as="geometry">
            <mxPoint as="offset" />
            <mxPoint x="1170" y="209.5" as="sourcePoint" />
            <mxPoint x="1210" y="209.5" as="targetPoint" />
          </mxGeometry>
        </mxCell>
        <mxCell id="IYtLKer7iQLUhPNdhKc--19" value="" style="shape=connector;rounded=0;orthogonalLoop=1;jettySize=auto;html=1;exitX=0.5;exitY=1;exitDx=0;exitDy=0;shadow=0;labelBackgroundColor=none;strokeColor=default;strokeWidth=1;align=center;verticalAlign=middle;fontFamily=Helvetica;fontSize=11;fontColor=default;endArrow=block;endFill=0;endSize=8;" edge="1" parent="WIyWlLk6GJQsqaUBKTNV-1" source="IYtLKer7iQLUhPNdhKc--5" target="IYtLKer7iQLUhPNdhKc--18">
          <mxGeometry relative="1" as="geometry">
            <mxPoint x="980" y="320" as="sourcePoint" />
            <mxPoint x="1025" y="380" as="targetPoint" />
          </mxGeometry>
        </mxCell>
        <mxCell id="IYtLKer7iQLUhPNdhKc--18" value="Select the recipe that you want" style="rounded=1;whiteSpace=wrap;html=1;fontSize=12;glass=0;strokeWidth=1;shadow=0;" vertex="1" parent="WIyWlLk6GJQsqaUBKTNV-1">
          <mxGeometry x="920" y="370" width="120" height="40" as="geometry" />
        </mxCell>
        <mxCell id="IYtLKer7iQLUhPNdhKc--20" value="Yes" style="rounded=0;html=1;jettySize=auto;orthogonalLoop=1;fontSize=11;endArrow=block;endFill=0;endSize=8;strokeWidth=1;shadow=0;labelBackgroundColor=none;edgeStyle=orthogonalEdgeStyle;" edge="1" parent="WIyWlLk6GJQsqaUBKTNV-1" source="QnkBfAuby-8ETpN3tcD6-46" target="IYtLKer7iQLUhPNdhKc--5">
          <mxGeometry x="0.2" y="20" relative="1" as="geometry">
            <mxPoint as="offset" />
            <mxPoint x="1040" y="220" as="sourcePoint" />
            <mxPoint x="1080" y="220" as="targetPoint" />
          </mxGeometry>
        </mxCell>
        <mxCell id="IYtLKer7iQLUhPNdhKc--21" value="Yes" style="rounded=0;html=1;jettySize=auto;orthogonalLoop=1;fontSize=11;endArrow=block;endFill=0;endSize=8;strokeWidth=1;shadow=0;labelBackgroundColor=none;edgeStyle=orthogonalEdgeStyle;" edge="1" parent="WIyWlLk6GJQsqaUBKTNV-1" source="IYtLKer7iQLUhPNdhKc--2" target="IYtLKer7iQLUhPNdhKc--9">
          <mxGeometry x="0.2" y="20" relative="1" as="geometry">
            <mxPoint as="offset" />
            <mxPoint x="990" y="260" as="sourcePoint" />
            <mxPoint x="990" y="290" as="targetPoint" />
          </mxGeometry>
        </mxCell>
        <mxCell id="IYtLKer7iQLUhPNdhKc--22" value="Yes" style="rounded=0;html=1;jettySize=auto;orthogonalLoop=1;fontSize=11;endArrow=block;endFill=0;endSize=8;strokeWidth=1;shadow=0;labelBackgroundColor=none;edgeStyle=orthogonalEdgeStyle;" edge="1" target="IYtLKer7iQLUhPNdhKc--23" parent="WIyWlLk6GJQsqaUBKTNV-1" source="IYtLKer7iQLUhPNdhKc--15">
          <mxGeometry x="0.2" y="20" relative="1" as="geometry">
            <mxPoint as="offset" />
            <mxPoint x="1260" y="250" as="sourcePoint" />
            <mxPoint x="1130" y="290" as="targetPoint" />
          </mxGeometry>
        </mxCell>
        <mxCell id="IYtLKer7iQLUhPNdhKc--26" style="edgeStyle=orthogonalEdgeStyle;shape=connector;rounded=0;orthogonalLoop=1;jettySize=auto;html=1;exitX=0.5;exitY=1;exitDx=0;exitDy=0;shadow=0;labelBackgroundColor=none;strokeColor=default;strokeWidth=1;align=center;verticalAlign=middle;fontFamily=Helvetica;fontSize=11;fontColor=default;endArrow=block;endFill=0;endSize=8;" edge="1" parent="WIyWlLk6GJQsqaUBKTNV-1" source="IYtLKer7iQLUhPNdhKc--23" target="IYtLKer7iQLUhPNdhKc--25">
          <mxGeometry relative="1" as="geometry" />
        </mxCell>
        <mxCell id="IYtLKer7iQLUhPNdhKc--23" value="Input photo, title, ingredients, videos" style="rounded=1;whiteSpace=wrap;html=1;fontSize=12;glass=0;strokeWidth=1;shadow=0;" vertex="1" parent="WIyWlLk6GJQsqaUBKTNV-1">
          <mxGeometry x="1200" y="280" width="120" height="40" as="geometry" />
        </mxCell>
        <mxCell id="IYtLKer7iQLUhPNdhKc--42" style="edgeStyle=orthogonalEdgeStyle;shape=connector;rounded=0;orthogonalLoop=1;jettySize=auto;html=1;exitX=0.5;exitY=1;exitDx=0;exitDy=0;shadow=0;labelBackgroundColor=none;strokeColor=default;strokeWidth=1;align=center;verticalAlign=middle;fontFamily=Helvetica;fontSize=11;fontColor=default;endArrow=block;endFill=0;endSize=8;" edge="1" parent="WIyWlLk6GJQsqaUBKTNV-1" source="IYtLKer7iQLUhPNdhKc--25" target="IYtLKer7iQLUhPNdhKc--43">
          <mxGeometry relative="1" as="geometry" />
        </mxCell>
        <mxCell id="IYtLKer7iQLUhPNdhKc--25" value="Submit recipe" style="rounded=1;whiteSpace=wrap;html=1;fontSize=12;glass=0;strokeWidth=1;shadow=0;" vertex="1" parent="WIyWlLk6GJQsqaUBKTNV-1">
          <mxGeometry x="1200" y="360" width="120" height="40" as="geometry" />
        </mxCell>
        <mxCell id="IYtLKer7iQLUhPNdhKc--27" value="See steps?" style="rhombus;whiteSpace=wrap;html=1;shadow=0;fontFamily=Helvetica;fontSize=12;align=center;strokeWidth=1;spacing=6;spacingTop=-4;" vertex="1" parent="WIyWlLk6GJQsqaUBKTNV-1">
          <mxGeometry x="990" y="540" width="100" height="80" as="geometry" />
        </mxCell>
        <mxCell id="IYtLKer7iQLUhPNdhKc--30" value="No" style="rounded=0;html=1;jettySize=auto;orthogonalLoop=1;fontSize=11;endArrow=block;endFill=0;endSize=8;strokeWidth=1;shadow=0;labelBackgroundColor=none;edgeStyle=orthogonalEdgeStyle;" edge="1" parent="WIyWlLk6GJQsqaUBKTNV-1" source="IYtLKer7iQLUhPNdhKc--27" target="IYtLKer7iQLUhPNdhKc--31">
          <mxGeometry x="0.0122" y="20" relative="1" as="geometry">
            <mxPoint y="-1" as="offset" />
            <mxPoint x="1040" y="220" as="sourcePoint" />
            <mxPoint x="1040" y="660" as="targetPoint" />
          </mxGeometry>
        </mxCell>
        <mxCell id="IYtLKer7iQLUhPNdhKc--31" value="Save this recipe?" style="rhombus;whiteSpace=wrap;html=1;shadow=0;fontFamily=Helvetica;fontSize=12;align=center;strokeWidth=1;spacing=6;spacingTop=-4;" vertex="1" parent="WIyWlLk6GJQsqaUBKTNV-1">
          <mxGeometry x="990" y="650" width="100" height="80" as="geometry" />
        </mxCell>
        <mxCell id="IYtLKer7iQLUhPNdhKc--32" value="No" style="rounded=0;html=1;jettySize=auto;orthogonalLoop=1;fontSize=11;endArrow=block;endFill=0;endSize=8;strokeWidth=1;shadow=0;labelBackgroundColor=none;edgeStyle=orthogonalEdgeStyle;" edge="1" source="IYtLKer7iQLUhPNdhKc--31" parent="WIyWlLk6GJQsqaUBKTNV-1" target="IYtLKer7iQLUhPNdhKc--33">
          <mxGeometry x="0.0122" y="20" relative="1" as="geometry">
            <mxPoint y="-1" as="offset" />
            <mxPoint x="1040" y="340" as="sourcePoint" />
            <mxPoint x="1040" y="780" as="targetPoint" />
          </mxGeometry>
        </mxCell>
        <mxCell id="IYtLKer7iQLUhPNdhKc--33" value="Like this recipe?" style="rhombus;whiteSpace=wrap;html=1;shadow=0;fontFamily=Helvetica;fontSize=12;align=center;strokeWidth=1;spacing=6;spacingTop=-4;" vertex="1" parent="WIyWlLk6GJQsqaUBKTNV-1">
          <mxGeometry x="990" y="760" width="100" height="80" as="geometry" />
        </mxCell>
        <mxCell id="IYtLKer7iQLUhPNdhKc--34" value="Yes" style="rounded=0;html=1;jettySize=auto;orthogonalLoop=1;fontSize=11;endArrow=block;endFill=0;endSize=8;strokeWidth=1;shadow=0;labelBackgroundColor=none;edgeStyle=orthogonalEdgeStyle;" edge="1" parent="WIyWlLk6GJQsqaUBKTNV-1" source="IYtLKer7iQLUhPNdhKc--27" target="IYtLKer7iQLUhPNdhKc--12">
          <mxGeometry x="0.2" y="20" relative="1" as="geometry">
            <mxPoint as="offset" />
            <mxPoint x="990" y="260" as="sourcePoint" />
            <mxPoint x="990" y="290" as="targetPoint" />
          </mxGeometry>
        </mxCell>
        <mxCell id="IYtLKer7iQLUhPNdhKc--35" value="Save the recipe to the &quot;Saved Recipe&quot;" style="rounded=1;whiteSpace=wrap;html=1;fontSize=12;glass=0;strokeWidth=1;shadow=0;" vertex="1" parent="WIyWlLk6GJQsqaUBKTNV-1">
          <mxGeometry x="840" y="670" width="120" height="40" as="geometry" />
        </mxCell>
        <mxCell id="IYtLKer7iQLUhPNdhKc--36" value="Yes" style="rounded=0;html=1;jettySize=auto;orthogonalLoop=1;fontSize=11;endArrow=block;endFill=0;endSize=8;strokeWidth=1;shadow=0;labelBackgroundColor=none;edgeStyle=orthogonalEdgeStyle;" edge="1" target="IYtLKer7iQLUhPNdhKc--35" parent="WIyWlLk6GJQsqaUBKTNV-1">
          <mxGeometry x="-0.3118" y="20" relative="1" as="geometry">
            <mxPoint x="-1" as="offset" />
            <mxPoint x="990" y="690" as="sourcePoint" />
            <mxPoint x="990" y="400" as="targetPoint" />
          </mxGeometry>
        </mxCell>
        <mxCell id="IYtLKer7iQLUhPNdhKc--37" value="Save the recipe to the &quot;Liked Recipe&quot;" style="rounded=1;whiteSpace=wrap;html=1;fontSize=12;glass=0;strokeWidth=1;shadow=0;" vertex="1" parent="WIyWlLk6GJQsqaUBKTNV-1">
          <mxGeometry x="840" y="780" width="120" height="40" as="geometry" />
        </mxCell>
        <mxCell id="IYtLKer7iQLUhPNdhKc--38" value="Yes" style="rounded=0;html=1;jettySize=auto;orthogonalLoop=1;fontSize=11;endArrow=block;endFill=0;endSize=8;strokeWidth=1;shadow=0;labelBackgroundColor=none;edgeStyle=orthogonalEdgeStyle;" edge="1" target="IYtLKer7iQLUhPNdhKc--37" parent="WIyWlLk6GJQsqaUBKTNV-1">
          <mxGeometry x="-0.3118" y="20" relative="1" as="geometry">
            <mxPoint x="-1" as="offset" />
            <mxPoint x="990" y="800" as="sourcePoint" />
            <mxPoint x="990" y="510" as="targetPoint" />
          </mxGeometry>
        </mxCell>
        <mxCell id="IYtLKer7iQLUhPNdhKc--39" value="No" style="rounded=0;html=1;jettySize=auto;orthogonalLoop=1;fontSize=11;endArrow=block;endFill=0;endSize=8;strokeWidth=1;shadow=0;labelBackgroundColor=none;edgeStyle=orthogonalEdgeStyle;entryX=1;entryY=0.5;entryDx=0;entryDy=0;exitX=1;exitY=0.5;exitDx=0;exitDy=0;" edge="1" parent="WIyWlLk6GJQsqaUBKTNV-1" source="IYtLKer7iQLUhPNdhKc--33" target="IYtLKer7iQLUhPNdhKc--7">
          <mxGeometry x="-0.9474" y="-20" relative="1" as="geometry">
            <mxPoint as="offset" />
            <mxPoint x="1050" y="740" as="sourcePoint" />
            <mxPoint x="1050" y="770" as="targetPoint" />
            <Array as="points">
              <mxPoint x="1130" y="800" />
              <mxPoint x="1130" y="490" />
            </Array>
          </mxGeometry>
        </mxCell>
        <mxCell id="IYtLKer7iQLUhPNdhKc--40" value="Saved the recipe to the &quot;My Recipe&quot;" style="rounded=1;whiteSpace=wrap;html=1;fontSize=12;glass=0;strokeWidth=1;shadow=0;" vertex="1" parent="WIyWlLk6GJQsqaUBKTNV-1">
          <mxGeometry x="1200" y="510" width="120" height="40" as="geometry" />
        </mxCell>
        <mxCell id="IYtLKer7iQLUhPNdhKc--44" style="edgeStyle=orthogonalEdgeStyle;shape=connector;rounded=0;orthogonalLoop=1;jettySize=auto;html=1;exitX=0.5;exitY=1;exitDx=0;exitDy=0;shadow=0;labelBackgroundColor=none;strokeColor=default;strokeWidth=1;align=center;verticalAlign=middle;fontFamily=Helvetica;fontSize=11;fontColor=default;endArrow=block;endFill=0;endSize=8;" edge="1" parent="WIyWlLk6GJQsqaUBKTNV-1" source="IYtLKer7iQLUhPNdhKc--43" target="IYtLKer7iQLUhPNdhKc--40">
          <mxGeometry relative="1" as="geometry" />
        </mxCell>
        <mxCell id="IYtLKer7iQLUhPNdhKc--43" value="Recipe published" style="rounded=1;whiteSpace=wrap;html=1;fontSize=12;glass=0;strokeWidth=1;shadow=0;" vertex="1" parent="WIyWlLk6GJQsqaUBKTNV-1">
          <mxGeometry x="1200" y="435" width="120" height="40" as="geometry" />
        </mxCell>
        <mxCell id="IYtLKer7iQLUhPNdhKc--45" value="No" style="rounded=0;html=1;jettySize=auto;orthogonalLoop=1;fontSize=11;endArrow=block;endFill=0;endSize=8;strokeWidth=1;shadow=0;labelBackgroundColor=none;edgeStyle=orthogonalEdgeStyle;entryX=0.5;entryY=0;entryDx=0;entryDy=0;exitX=0.5;exitY=0;exitDx=0;exitDy=0;" edge="1" parent="WIyWlLk6GJQsqaUBKTNV-1" source="IYtLKer7iQLUhPNdhKc--16" target="QnkBfAuby-8ETpN3tcD6-14">
          <mxGeometry x="-0.9697" y="-10" relative="1" as="geometry">
            <mxPoint as="offset" />
            <mxPoint x="1320" y="220" as="sourcePoint" />
            <mxPoint x="1360" y="220" as="targetPoint" />
          </mxGeometry>
        </mxCell>
        <mxCell id="IYtLKer7iQLUhPNdhKc--47" value="Yes" style="rounded=0;html=1;jettySize=auto;orthogonalLoop=1;fontSize=11;endArrow=block;endFill=0;endSize=8;strokeWidth=1;shadow=0;labelBackgroundColor=none;edgeStyle=orthogonalEdgeStyle;" edge="1" parent="WIyWlLk6GJQsqaUBKTNV-1" source="IYtLKer7iQLUhPNdhKc--16">
          <mxGeometry x="0.2" y="20" relative="1" as="geometry">
            <mxPoint as="offset" />
            <mxPoint x="1270" y="260" as="sourcePoint" />
            <mxPoint x="1400" y="280" as="targetPoint" />
          </mxGeometry>
        </mxCell>
        <mxCell id="IYtLKer7iQLUhPNdhKc--62" style="edgeStyle=orthogonalEdgeStyle;shape=connector;rounded=0;orthogonalLoop=1;jettySize=auto;html=1;exitX=1;exitY=0.5;exitDx=0;exitDy=0;shadow=0;labelBackgroundColor=none;strokeColor=default;strokeWidth=1;align=center;verticalAlign=middle;fontFamily=Helvetica;fontSize=11;fontColor=default;endArrow=block;endFill=0;endSize=8;" edge="1" parent="WIyWlLk6GJQsqaUBKTNV-1" source="IYtLKer7iQLUhPNdhKc--48" target="IYtLKer7iQLUhPNdhKc--60">
          <mxGeometry relative="1" as="geometry" />
        </mxCell>
        <mxCell id="IYtLKer7iQLUhPNdhKc--48" value="Show the list of &lt;br&gt;&quot;My Recipe&quot;" style="rounded=1;whiteSpace=wrap;html=1;fontSize=12;glass=0;strokeWidth=1;shadow=0;" vertex="1" parent="WIyWlLk6GJQsqaUBKTNV-1">
          <mxGeometry x="1500" y="300" width="120" height="40" as="geometry" />
        </mxCell>
        <mxCell id="IYtLKer7iQLUhPNdhKc--49" value="See my recipe?" style="rhombus;whiteSpace=wrap;html=1;shadow=0;fontFamily=Helvetica;fontSize=12;align=center;strokeWidth=1;spacing=6;spacingTop=-4;" vertex="1" parent="WIyWlLk6GJQsqaUBKTNV-1">
          <mxGeometry x="1350" y="280" width="100" height="80" as="geometry" />
        </mxCell>
        <mxCell id="IYtLKer7iQLUhPNdhKc--50" value="No" style="rounded=0;html=1;jettySize=auto;orthogonalLoop=1;fontSize=11;endArrow=block;endFill=0;endSize=8;strokeWidth=1;shadow=0;labelBackgroundColor=none;edgeStyle=orthogonalEdgeStyle;" edge="1" source="IYtLKer7iQLUhPNdhKc--49" target="IYtLKer7iQLUhPNdhKc--51" parent="WIyWlLk6GJQsqaUBKTNV-1">
          <mxGeometry x="0.0122" y="20" relative="1" as="geometry">
            <mxPoint y="-1" as="offset" />
            <mxPoint x="1400" y="-40" as="sourcePoint" />
            <mxPoint x="1400" y="400" as="targetPoint" />
          </mxGeometry>
        </mxCell>
        <mxCell id="IYtLKer7iQLUhPNdhKc--51" value="See saved recipe?" style="rhombus;whiteSpace=wrap;html=1;shadow=0;fontFamily=Helvetica;fontSize=12;align=center;strokeWidth=1;spacing=6;spacingTop=-4;" vertex="1" parent="WIyWlLk6GJQsqaUBKTNV-1">
          <mxGeometry x="1350" y="390" width="100" height="80" as="geometry" />
        </mxCell>
        <mxCell id="IYtLKer7iQLUhPNdhKc--52" value="No" style="rounded=0;html=1;jettySize=auto;orthogonalLoop=1;fontSize=11;endArrow=block;endFill=0;endSize=8;strokeWidth=1;shadow=0;labelBackgroundColor=none;edgeStyle=orthogonalEdgeStyle;" edge="1" source="IYtLKer7iQLUhPNdhKc--51" target="IYtLKer7iQLUhPNdhKc--53" parent="WIyWlLk6GJQsqaUBKTNV-1">
          <mxGeometry x="0.0122" y="20" relative="1" as="geometry">
            <mxPoint y="-1" as="offset" />
            <mxPoint x="1400" y="80" as="sourcePoint" />
            <mxPoint x="1400" y="520" as="targetPoint" />
          </mxGeometry>
        </mxCell>
        <mxCell id="IYtLKer7iQLUhPNdhKc--59" value="" style="edgeStyle=orthogonalEdgeStyle;shape=connector;rounded=0;orthogonalLoop=1;jettySize=auto;html=1;shadow=0;labelBackgroundColor=none;strokeColor=default;strokeWidth=1;align=center;verticalAlign=middle;fontFamily=Helvetica;fontSize=11;fontColor=default;endArrow=block;endFill=0;endSize=8;" edge="1" parent="WIyWlLk6GJQsqaUBKTNV-1" source="IYtLKer7iQLUhPNdhKc--53" target="IYtLKer7iQLUhPNdhKc--57">
          <mxGeometry relative="1" as="geometry" />
        </mxCell>
        <mxCell id="IYtLKer7iQLUhPNdhKc--53" value="See liked recipe?" style="rhombus;whiteSpace=wrap;html=1;shadow=0;fontFamily=Helvetica;fontSize=12;align=center;strokeWidth=1;spacing=6;spacingTop=-4;" vertex="1" parent="WIyWlLk6GJQsqaUBKTNV-1">
          <mxGeometry x="1350" y="500" width="100" height="80" as="geometry" />
        </mxCell>
        <mxCell id="IYtLKer7iQLUhPNdhKc--54" value="Yes" style="rounded=0;html=1;jettySize=auto;orthogonalLoop=1;fontSize=11;endArrow=block;endFill=0;endSize=8;strokeWidth=1;shadow=0;labelBackgroundColor=none;edgeStyle=orthogonalEdgeStyle;" edge="1" source="IYtLKer7iQLUhPNdhKc--49" target="IYtLKer7iQLUhPNdhKc--48" parent="WIyWlLk6GJQsqaUBKTNV-1">
          <mxGeometry x="0.2" y="20" relative="1" as="geometry">
            <mxPoint as="offset" />
            <mxPoint x="1350" as="sourcePoint" />
            <mxPoint x="1350" y="30" as="targetPoint" />
          </mxGeometry>
        </mxCell>
        <mxCell id="IYtLKer7iQLUhPNdhKc--61" style="edgeStyle=orthogonalEdgeStyle;shape=connector;rounded=0;orthogonalLoop=1;jettySize=auto;html=1;exitX=1;exitY=0.5;exitDx=0;exitDy=0;shadow=0;labelBackgroundColor=none;strokeColor=default;strokeWidth=1;align=center;verticalAlign=middle;fontFamily=Helvetica;fontSize=11;fontColor=default;endArrow=block;endFill=0;endSize=8;" edge="1" parent="WIyWlLk6GJQsqaUBKTNV-1" source="IYtLKer7iQLUhPNdhKc--55" target="IYtLKer7iQLUhPNdhKc--60">
          <mxGeometry relative="1" as="geometry" />
        </mxCell>
        <mxCell id="IYtLKer7iQLUhPNdhKc--55" value="Show the list of&lt;br style=&quot;border-color: var(--border-color);&quot;&gt;&quot;Saved Recipe&quot;" style="rounded=1;whiteSpace=wrap;html=1;fontSize=12;glass=0;strokeWidth=1;shadow=0;" vertex="1" parent="WIyWlLk6GJQsqaUBKTNV-1">
          <mxGeometry x="1500" y="410" width="120" height="40" as="geometry" />
        </mxCell>
        <mxCell id="IYtLKer7iQLUhPNdhKc--56" value="Yes" style="rounded=0;html=1;jettySize=auto;orthogonalLoop=1;fontSize=11;endArrow=block;endFill=0;endSize=8;strokeWidth=1;shadow=0;labelBackgroundColor=none;edgeStyle=orthogonalEdgeStyle;" edge="1" target="IYtLKer7iQLUhPNdhKc--55" parent="WIyWlLk6GJQsqaUBKTNV-1" source="IYtLKer7iQLUhPNdhKc--51">
          <mxGeometry x="0.2" y="20" relative="1" as="geometry">
            <mxPoint as="offset" />
            <mxPoint x="1350" y="430" as="sourcePoint" />
            <mxPoint x="1350" y="140" as="targetPoint" />
          </mxGeometry>
        </mxCell>
        <mxCell id="IYtLKer7iQLUhPNdhKc--63" style="edgeStyle=orthogonalEdgeStyle;shape=connector;rounded=0;orthogonalLoop=1;jettySize=auto;html=1;exitX=1;exitY=0.5;exitDx=0;exitDy=0;shadow=0;labelBackgroundColor=none;strokeColor=default;strokeWidth=1;align=center;verticalAlign=middle;fontFamily=Helvetica;fontSize=11;fontColor=default;endArrow=block;endFill=0;endSize=8;" edge="1" parent="WIyWlLk6GJQsqaUBKTNV-1" source="IYtLKer7iQLUhPNdhKc--57" target="IYtLKer7iQLUhPNdhKc--60">
          <mxGeometry relative="1" as="geometry" />
        </mxCell>
        <mxCell id="IYtLKer7iQLUhPNdhKc--57" value="Show the list of&lt;br style=&quot;border-color: var(--border-color);&quot;&gt;&quot;Liked Recipe&quot;" style="rounded=1;whiteSpace=wrap;html=1;fontSize=12;glass=0;strokeWidth=1;shadow=0;" vertex="1" parent="WIyWlLk6GJQsqaUBKTNV-1">
          <mxGeometry x="1500" y="520" width="120" height="40" as="geometry" />
        </mxCell>
        <mxCell id="IYtLKer7iQLUhPNdhKc--58" value="Yes" style="rounded=0;html=1;jettySize=auto;orthogonalLoop=1;fontSize=11;endArrow=block;endFill=0;endSize=8;strokeWidth=1;shadow=0;labelBackgroundColor=none;edgeStyle=orthogonalEdgeStyle;" edge="1" target="IYtLKer7iQLUhPNdhKc--57" parent="WIyWlLk6GJQsqaUBKTNV-1" source="IYtLKer7iQLUhPNdhKc--53">
          <mxGeometry x="0.2" y="20" relative="1" as="geometry">
            <mxPoint as="offset" />
            <mxPoint x="1350" y="540" as="sourcePoint" />
            <mxPoint x="1350" y="250" as="targetPoint" />
          </mxGeometry>
        </mxCell>
        <mxCell id="IYtLKer7iQLUhPNdhKc--60" value="Select the recipe that you want" style="rounded=1;whiteSpace=wrap;html=1;fontSize=12;glass=0;strokeWidth=1;shadow=0;" vertex="1" parent="WIyWlLk6GJQsqaUBKTNV-1">
          <mxGeometry x="1654" y="410" width="120" height="40" as="geometry" />
        </mxCell>
        <mxCell id="IYtLKer7iQLUhPNdhKc--65" value="" style="endArrow=none;html=1;rounded=0;shadow=0;labelBackgroundColor=none;strokeColor=default;strokeWidth=1;align=center;verticalAlign=middle;fontFamily=Helvetica;fontSize=11;fontColor=default;endSize=8;shape=connector;entryX=1;entryY=0.5;entryDx=0;entryDy=0;edgeStyle=orthogonalEdgeStyle;" edge="1" parent="WIyWlLk6GJQsqaUBKTNV-1" target="IYtLKer7iQLUhPNdhKc--60">
          <mxGeometry width="50" height="50" relative="1" as="geometry">
            <mxPoint x="1130" y="670" as="sourcePoint" />
            <mxPoint x="1510" y="660" as="targetPoint" />
          </mxGeometry>
        </mxCell>
      </root>
    </mxGraphModel>
  </diagram>
</mxfile>
